<svg xmlns="http://www.w3.org/2000/svg" viewBox="0 0 168.17 43.69"><defs><style>.cls-1{fill:#171717;}.cls-2{fill:#25a9e0;}.cls-3{fill:#fff;}</style></defs><title>logo</title><g id="Layer_2" data-name="Layer 2"><g id="Layer_1-2" data-name="Layer 1"><path class="cls-1" d="M42.86,41.41l6.33-36c3.66,0,7.29-.28,10.85.08,3.89.39,5.74,3.17,5.15,7.18-.75,5-1.67,9.94-2.53,14.91-.35,2-.67,4.09-1.14,6.11-1.19,5-4.53,7.64-9.73,7.67C48.88,41.42,46,41.41,42.86,41.41Zm6.55-5.28c4.87.71,6.1-.05,6.9-4.36q1.56-8.46,3-16.95c.64-3.87.12-4.42-3.75-4.4H54Z"/><path class="cls-1" d="M120.76,5.61c3.91,0,7.68-.22,11.42.07a4.2,4.2,0,0,1,4.17,4.75,39.7,39.7,0,0,1-1.71,9.31c-.49,1.57-2.12,2.79-3.29,4.23,3,2.09,2.13,5.37,1.64,8.56-.45,2.88-.92,5.75-1.41,8.77h-5.53c.29-2.11.55-4.18.86-6.24.24-1.63.64-3.24.78-4.87.23-2.57-.69-3.47-3.29-3.49h-1.71c-.88,4.92-1.74,9.76-2.62,14.64h-5.6Q117.64,23.36,120.76,5.61Zm4.76,5-1.9,10.84c4.17.64,5.69-.41,6.38-4.3l.33-1.88c.76-4.36.18-5-4.19-4.8A5.1,5.1,0,0,0,125.52,10.57Z"/><path class="cls-1" d="M78.22,41.37c.27-12.14.57-24,.83-36H84.7q-.4,14.15-.8,28.29l.23.06c.16-.41.35-.81.48-1.23,2.78-8.59,5.57-17.16,8.31-25.76l.46-1.44h5.2l-4,12.21c-2.48,7.51-5,15-7.41,22.53,0,.1-.43,1.23-.46,1.31Z"/><path class="cls-1" d="M136.38,30.62h5.42c-.13,1-.27,1.93-.37,2.85-.13,1.34-.08,2.61,1.54,3.08a3.26,3.26,0,0,0,3.87-1.77,6.2,6.2,0,0,0-.53-6.5A48.6,48.6,0,0,0,142.74,24c-3.7-4-4.14-8.58-2-13.45a9.55,9.55,0,0,1,12.17-5,5.23,5.23,0,0,1,3.53,4.85c.13,1.52,0,3,0,4.68h-5.56c.06-.66.13-1.32.18-2,.1-1.29,0-2.5-1.52-2.92A3.18,3.18,0,0,0,146,11.84a6.52,6.52,0,0,0,.8,7.2c1.2,1.55,2.57,3,3.83,4.48a10.81,10.81,0,0,1,2.69,7.63c-.33,7.43-6.05,12-12.9,10.25a5.1,5.1,0,0,1-4.22-4.61A42.76,42.76,0,0,1,136.38,30.62Z"/><path class="cls-1" d="M101.62,5.38H117l-.87,5h-9.77c-.6,3.41-1.18,6.72-1.8,10.22h7.77l-.92,5.12h-7.68c-.22.94-.19.76-.22.94-.63,3.12-1.13,6.26-1.7,9.59h9.74l-.87,5.07H95.29C97.41,29.32,99.5,17.42,101.62,5.38Z"/><path class="cls-1" d="M76.24,5.41,69.91,41.32H64.29L70.61,5.41Z"/><circle class="cls-2" cx="20.56" cy="23.14" r="20.56"/><path class="cls-3" d="M35,16a3.54,3.54,0,0,1-.35.51.63.63,0,0,1-.8.21c-.13-.06-.27-.27-.44,0s-.07.37.08.55c.28.34.13.62-.14.88a.69.69,0,0,1-.87.16.67.67,0,0,1-.36-.8c.05-.18.1-.36-.14-.4a.32.32,0,0,0-.4.22,9.5,9.5,0,0,1-1,2.22c-.07.1,0,.18.08.24A.71.71,0,0,1,30,21c-.51-.15-.54.09-.52.48a3.55,3.55,0,0,0,.19,1.15.84.84,0,0,1-.34,1.16c-.23.12-.09.28,0,.43s.21.49-.05.71-.25.33-.47.24a.83.83,0,0,1-.55-.66,1.27,1.27,0,0,0-.32-.95.55.55,0,0,1-.06-.8c.21-.23-.08-.39-.22-.56s-.32-.14-.48,0-.25.24-.44.11-.05-.24,0-.37c.08-.32-.22-.24-.32-.21-1.22.4-2.58.2-3.68,1.15a8.9,8.9,0,0,1-2.45,1.55,15.22,15.22,0,0,0-3.64,2.29,14.08,14.08,0,0,0-2.17,2.26,11.67,11.67,0,0,1-1.14,1.41c-1.62,1.41-3.14,3.08-5.55,3.11,0,0-.09.06-.13.09H7.33l-.46-.19c.37-.17.7-.35,1-.47a10.66,10.66,0,0,0,3.33-1.72,3.41,3.41,0,0,0,1.26-1.41,6.13,6.13,0,0,1,.59-1.45,1.6,1.6,0,0,0,.19-1.24.8.8,0,0,1,.22-.86c.28-.24.57-.1.83.07s.49.1.71-.13c1-1,1.58-2.31,2.83-3.06a2.92,2.92,0,0,0-.7-.06c-1,0-1.31-.19-1.65-1.16-.11-.31-.12-.67-.26-1a10.84,10.84,0,0,1-.75-2.23,5.33,5.33,0,0,0-1.19-2.5,5.27,5.27,0,0,0-1-1.08,11.56,11.56,0,0,0-4.18-1.21c-.68-.14-1.45.09-2-.46v-.11c.94,0,1.87.11,2.8.21,2,.21,3.95.62,5.92,1,.56.1.67.37.43.9-.12.26-.28.53-.14.8a14.09,14.09,0,0,0,1,2.06,5.74,5.74,0,0,1,1.06,1.92c.15.55.33.65.84.36l.43-.25c.62-.41,1.32-.65,2-1a.43.43,0,0,0-.42,0c-.44.28-.75.07-1-.27a2.91,2.91,0,0,1-.74-2.12.41.41,0,0,1,.28-.43c2.55-1,5.09-2.12,7.64-3.16a1.68,1.68,0,0,1,1.7.29c.55.42.89.33,1.12-.28a.76.76,0,0,1,.06-.16.71.71,0,0,1,.9-.39,1,1,0,0,1,.83.74c.1.4-.27.47-.52.62a1.19,1.19,0,0,0-.18.15,2.35,2.35,0,0,0,.62.56c.07,0,.2.14.22,0,.09-.47.59-.59.78-1,.37-.8,1.1-.59,1.73-.52a1.37,1.37,0,0,1,1.08,1.22A1.74,1.74,0,0,0,35,15.8Zm-5.78-2.49c-.12.49.21.46.42.48s.75-.19.79-.44-.35-.55-.69-.59S29.32,13.33,29.25,13.53Z"/><path class="cls-1" d="M161.07,0V1h-1.61v3.9h-1.34V1h-1.61V0Z"/><path class="cls-1" d="M168.17,4.91h-1.25V1l-.07.27a12,12,0,0,1-.43,1.41l-.87,2.19h-1l-.88-2.21a11.83,11.83,0,0,1-.41-1.36l-.08-.3V4.91H162V0h1.85l.84,2.1a5.42,5.42,0,0,1,.24.77,6.56,6.56,0,0,1,.16.76c.09-.44.17-.76.22-.95s.12-.37.18-.53.36-.88.87-2.15h1.83Z"/></g></g></svg>